<?xml version="1.0" standalone="no"?>
<!DOCTYPE svg PUBLIC "-//W3C//DTD SVG 20010904//EN"
 "http://www.w3.org/TR/2001/REC-SVG-20010904/DTD/svg10.dtd">
<svg version="1.0" xmlns="http://www.w3.org/2000/svg"
 width="512.000000pt" height="512.000000pt" viewBox="0 0 512.000000 512.000000"
 preserveAspectRatio="xMidYMid meet">
<metadata>
Created by potrace 1.11, written by Peter Selinger 2001-2013
</metadata>
<g transform="translate(0.000000,512.000000) scale(0.100000,-0.100000)"
fill="#000000" stroke="none">
<path d="M387 5104 c-167 -40 -297 -156 -359 -320 l-23 -59 -3 -2130 c-2
-1555 0 -2146 8 -2190 36 -191 197 -354 388 -394 75 -16 4249 -16 4324 0 191
40 352 203 388 394 8 44 10 635 8 2190 l-3 2130 -24 60 c-62 153 -159 251
-307 307 l-59 23 -2140 2 c-1810 1 -2149 -1 -2198 -13z m3463 -1229 l0 -265
-485 0 -485 0 0 -1315 0 -1315 -325 0 -325 0 0 1315 0 1315 -480 0 -480 0 0
265 0 265 1290 0 1290 0 0 -265z"/>
</g>
</svg>
